<?xml version="1.0" encoding="utf-8"?>
<!-- Generator: Adobe Illustrator 25.0.0, SVG Export Plug-In . SVG Version: 6.00 Build 0)  -->
<svg version="1.1" id="Layer_1" xmlns="http://www.w3.org/2000/svg" xmlns:xlink="http://www.w3.org/1999/xlink" x="0px" y="0px"
	 viewBox="0 0 106.064 132.4093" enable-background="new 0 0 106.064 132.4093" xml:space="preserve">
<g>
	<path d="M5.7317,55.6554l2.4189-1.1611l9.6807,2.0186l5.167,6.9443c0.4902,0.6582,1.1699,1.1504,1.9492,1.4092l3.0656,1.0173
		c0.9439,4.8782,3.0793,10.3596,7.6787,14.5851c4.5132,4.1462,11.8444,9.8155,18.8143,14.9871
		c0.8847-1.6132,2.1801-5.6585,2.1801-5.6585c0.5267,2.6579,0.6204,5.4605,0.574,7.6909c0.2152,0.158,0.4297,0.3152,0.6433,0.4716
		c0.7427-1.6495,1.426-3.4388,1.426-3.4388c0.2226,1.5666,0.2925,3.1733,0.2812,4.6851c1.4584,1.0613,2.8585,2.0723,4.169,3.0132
		c-0.0066,0.3465,0.0351,0.6968,0.1347,1.0406l4.0693,14.042l0.3818,8.9453c0.0322,0.751,0.3057,1.4717,0.7783,2.0557l2.2803,2.8115
		c0.6924,0.8525,1.7021,1.2949,2.7207,1.2949c0.7744,0,1.5547-0.2559,2.2031-0.7812c1.501-1.2178,1.7305-3.4219,0.5137-4.9238
		l-1.5518-1.9121l-0.334-7.8232c0.0039-0.1553-0.001-0.3135-0.0176-0.4727l-0.9229-8.8455
		c0.2258-0.2194,0.4767-0.4678,0.7549-0.7485l2.3154,8.0315l0.0312,0.2148c0.0918,0.6328,0.3486,1.2012,0.7188,1.668l3.2471,6.6436
		c0.1504,0.3076,0.3457,0.5918,0.5791,0.8438l2.4629,2.6543c0.6895,0.7432,1.626,1.1191,2.5664,1.1191
		c0.8516,0,1.7061-0.3096,2.3799-0.9346c1.417-1.3145,1.5-3.5293,0.1846-4.9463l-2.1113-2.2754l-3.2188-6.5859l-0.9572-6.5518
		l-3.5256-7.1787l5.7056,5.9839c3.3878-1.2214,7.6986-2.2069,11.1226-1.9717c4.3183,0.2966,8.8023-5.3238,8.0905-8.1882
		c-0.0004-0.0016-0.0008-0.0027-0.0012-0.0043c0.2955-0.1821,0.5378-0.4548,0.6676-0.8056c0.3085-0.834-0.1176-1.7602-0.9516-2.0687
		c-0.3101-0.1147-0.6328-0.1271-0.9318-0.0555c4.5138-9.2772,4.6746-12.5353-6.1994-17.2399
		c-0.6196-0.2681-1.2388-0.4901-1.8575-0.6804L89.2,68.4368c-0.2999-0.3116-0.8256-0.0822-0.8011,0.3496l0.2427,4.277
		l-3.0688-3.0648c-0.3071-0.3067-0.8306-0.0731-0.8075,0.3602l0.2057,3.8674c-1.7073,0.3248-3.3794,0.793-5.0011,1.3222
		c-0.0909-0.149-0.1826-0.3008-0.2728-0.4476c0,0-0.0018-0.0012-0.0019-0.0013c-0.999-2.0958-2.483-4.8317-4.3523-7.1668
		c0,0,0.3688,2.1538,0.5624,4.0508c-1.3-1.9219-3.6705-5.126-6.5256-7.5918c0,0,0.8162,2.2185,1.354,4.1003
		c-5.6046-4.3525-13.0346-10.5173-19.8991-17.4765c-0.3076-0.3118-0.6112-0.5911-0.915-0.8715l0.058,0.0173
		c0,0-0.3262-0.3887-0.9012-1.018C46.6418,45.703,38.263,31.2955,47.9378,6.8405c1.0156-2.5679-0.2422-5.4731-2.8105-6.4888
		c-2.5674-1.0151-5.4717,0.2417-6.4883,2.8101c-3.3743,8.5295-4.8512,16.1081-5.1728,22.6895
		c1.7308-1.0634,3.987-2.7584,3.987-2.7584c-1.1245,2.5138-2.7007,4.8919-4.0419,6.6959
		c0.1299,6.3764,1.3337,11.6693,2.8147,15.8159l-7.504-2.0977l-0.416-1.8076c-0.2197-0.9531-0.7812-1.7935-1.5781-2.3608
		l-10.3955-7.4028c-0.7158-0.5098-1.5811-0.7632-2.458-0.7393l-4.0352,0.1387c-2.208,0.0757-3.9355,1.9272-3.8604,4.1348
		c0.0752,2.208,1.9375,3.9355,4.1357,3.8604l2.6807-0.0923l8.0547,5.7358l0.9983,4.335c-0.2861-0.1364-0.5828-0.2516-0.8977-0.3174
		L8.4573,46.3859c-0.8594-0.1777-1.7559-0.0703-2.5469,0.3096l-3.6396,1.7471c-1.9922,0.9561-2.832,3.3457-1.876,5.3379
		C1.3509,55.7707,3.7405,56.6105,5.7317,55.6554z M98.4451,87.3635c0.3762-1.017,4.0589,0.3452,3.6828,1.3621
		c-0.3762,1.017-1.5055,1.5364-2.5225,1.1603C98.5885,89.5098,98.069,88.3805,98.4451,87.3635z"/>
</g>
</svg>
